<svg id="Capa_1" data-name="Capa 1" xmlns="http://www.w3.org/2000/svg" viewBox="0 0 587.04 380.94"><defs><style>.cls-1{fill:#ff6900;}.cls-2{fill:#fff;}.cls-3{fill:#f6be00;}</style></defs><title>AF_LOGO_VIVAZ_NEG_MOSTAZA_RGB</title><rect class="cls-1" width="587.04" height="380.94"/><path class="cls-2" d="M188.62,92.35h8.12a6.36,6.36,0,0,1,6.36,6.36v74.81a6.36,6.36,0,0,1-6.36,6.36h-8.12a6.36,6.36,0,0,1-6.36-6.36V98.72a6.36,6.36,0,0,1,6.36-6.36"/><path class="cls-2" d="M424,174.09l48-63.16H434.26a5.6,5.6,0,0,1-5.6-5.6V98a5.6,5.6,0,0,1,5.6-5.6h67a3.61,3.61,0,0,1,2.88,5.79L456.45,161.3h44.07a5.6,5.6,0,0,1,5.6,5.6v7.39a5.6,5.6,0,0,1-5.6,5.6H426.91a3.61,3.61,0,0,1-2.87-5.79"/><path class="cls-2" d="M394.62,92.35H386.5a6.36,6.36,0,0,0-6.36,6.36v2.64a42.26,42.26,0,0,0-28.28-10.92c-24,0-43.45,20.27-43.45,45.27S327.86,181,351.86,181a42.26,42.26,0,0,0,28.28-10.92v3.45a6.36,6.36,0,0,0,6.36,6.36h8.12a6.36,6.36,0,0,0,6.36-6.36V98.72a6.36,6.36,0,0,0-6.36-6.36m-40,69.82c-14.1,0-25.53-11.85-25.53-26.46s11.43-26.45,25.53-26.45,25.53,11.84,25.53,26.45-11.43,26.46-25.53,26.46"/><path class="cls-2" d="M143.15,74l-20.51,43.34L102.5,74.06a6.33,6.33,0,0,0-5.77-3.59H84.27A3.23,3.23,0,0,0,81.21,75l23.93,51.45a19,19,0,0,0,17.46,10.79h.06A19.15,19.15,0,0,0,140.1,126.5L164.46,75a3.23,3.23,0,0,0-3-4.55H148.89A6.33,6.33,0,0,0,143.15,74"/><path class="cls-2" d="M280.42,74l-20.51,43.34L239.77,74.06A6.33,6.33,0,0,0,234,70.47H221.54A3.23,3.23,0,0,0,218.49,75l23.93,51.45a19,19,0,0,0,17.46,10.79h.06a19.15,19.15,0,0,0,17.43-10.74L301.73,75a3.23,3.23,0,0,0-3-4.55H286.17A6.33,6.33,0,0,0,280.42,74"/><path class="cls-2" d="M496.1,306.88c-2.66,0-4.26-2-4.26-4.63s1.6-4.63,4.26-4.63c2.91,0,4.32,2.13,4.32,4.63s-1.41,4.63-4.32,4.63m4.16-19.25v9.29a5.24,5.24,0,0,0-4.57-2.35c-4.54,0-7.26,3.38-7.26,7.67s2.47,7.67,7.17,7.67a5.6,5.6,0,0,0,4.66-2.34v2h3.41V287.63Zm-23,22.28a4.82,4.82,0,0,0,4.51-2.41v2h3.41V295h-3.41v8.23c0,2.1-.95,3.82-3.54,3.82-2.22,0-3-1.38-3-3.72V295h-3.4v9.17c0,3.91,2.22,5.79,5.41,5.79m-13-.37h3.41V287.63h-3.41Zm-12-2.66c-2.67,0-4.26-2-4.26-4.63s1.59-4.63,4.26-4.63c2.91,0,4.32,2.13,4.32,4.63s-1.41,4.63-4.32,4.63m-.5,3a5.6,5.6,0,0,0,4.67-2.34v2h3.41V295h-3.41v2a5.25,5.25,0,0,0-4.57-2.35c-4.54,0-7.26,3.38-7.26,7.67s2.47,7.67,7.17,7.67m-15.28,0c3.72,0,5.76-2,5.76-4.75a4.22,4.22,0,0,0-3.38-3.91l-3.48-1a1.57,1.57,0,0,1-1.25-1.56c0-.91.91-1.5,2.1-1.5,1.6,0,2.54.72,2.54,1.94h3.34c0-2.6-1.94-4.54-5.76-4.54-3.38,0-5.6,1.91-5.6,4.29a3.93,3.93,0,0,0,3.15,4l3.76,1a1.43,1.43,0,0,1,1.09,1.53c0,1-.81,1.72-2.1,1.72-1.75,0-3-.88-3-2.13h-3.41c0,2.66,2.43,4.85,6.19,4.85m-27.14-9.13c0-2.07,1.47-3.51,3.88-3.51s3.67,1.25,3.7,3.51Zm10.92.72a6.6,6.6,0,0,0-7-6.92c-4.45,0-7.33,3-7.33,7.67s2.84,7.67,7.45,7.67c3.5,0,6.25-1.9,6.7-4.63h-3.44c-.56,1.13-1.57,1.66-3.26,1.66-2.47,0-4-1.25-4.08-3.57h10.83c.07-.87.1-1.22.1-1.88m-25.16,5.38c-2.66,0-4.26-2-4.26-4.63s1.6-4.63,4.26-4.63c2.92,0,4.32,2.13,4.32,4.63s-1.41,4.63-4.32,4.63m4.17-19.25v9.29a5.24,5.24,0,0,0-4.57-2.35c-4.54,0-7.26,3.38-7.26,7.67s2.47,7.67,7.17,7.67a5.6,5.6,0,0,0,4.67-2.34v2h3.41V287.63Zm-29.55,19.25c-2.76,0-4.29-2-4.29-4.63s1.54-4.63,4.29-4.63,4.29,2,4.29,4.63-1.53,4.63-4.29,4.63m0,3a7.67,7.67,0,1,0-7.7-7.67,7.31,7.31,0,0,0,7.7,7.67m-17.59-.37h3.41v-6.45c0-3.32,1.47-5.13,3.88-5.13a9.85,9.85,0,0,1,1.35.06v-3.13a5.7,5.7,0,0,0-1.35-.13,3.92,3.92,0,0,0-3.88,3V295h-3.41Zm-12.3.37a4.81,4.81,0,0,0,4.51-2.41v2h3.4V295h-3.4v8.23c0,2.1-.94,3.82-3.54,3.82-2.22,0-3-1.38-3-3.72V295h-3.41v9.17c0,3.91,2.22,5.79,5.41,5.79m-17.21-3c-2.57,0-4.26-2-4.26-4.63s1.69-4.63,4.26-4.63c2.79,0,4.32,2.13,4.32,4.63s-1.53,4.63-4.32,4.63M326.74,295v2a5.25,5.25,0,0,0-4.57-2.35c-4.38,0-7.26,3.38-7.26,7.67s2.63,7.67,7.16,7.67a5.6,5.6,0,0,0,4.67-2.34v1.6c0,3.29-1.47,4.51-4.26,4.51-2.35,0-3.57-1-3.86-2.47h-3.56a5,5,0,0,0,2.31,4,9.3,9.3,0,0,0,5.14,1.32,8.28,8.28,0,0,0,5-1.29c1.72-1.25,2.62-3.41,2.62-6.29V295Zm-25.27,5.82c0-2.07,1.47-3.51,3.89-3.51s3.66,1.25,3.69,3.51Zm10.92.72a6.6,6.6,0,0,0-7-6.92c-4.45,0-7.32,3-7.32,7.67s2.85,7.67,7.45,7.67c3.5,0,6.26-1.9,6.69-4.63H308.8c-.57,1.13-1.57,1.66-3.26,1.66-2.48,0-4-1.25-4.08-3.57H312.3c.06-.87.09-1.22.09-1.88M290,309.91c3.72,0,5.76-2,5.76-4.75a4.22,4.22,0,0,0-3.38-3.91l-3.48-1a1.57,1.57,0,0,1-1.25-1.56c0-.91.91-1.5,2.1-1.5,1.6,0,2.54.72,2.54,1.94h3.34c0-2.6-1.94-4.54-5.75-4.54-3.38,0-5.6,1.91-5.6,4.29a3.93,3.93,0,0,0,3.15,4l3.76,1a1.43,1.43,0,0,1,1.1,1.53c0,1-.82,1.72-2.1,1.72-1.75,0-3-.88-3-2.13h-3.41c0,2.66,2.44,4.85,6.2,4.85m-25.23,0a4.8,4.8,0,0,0,4.5-2.41v2h3.41V295h-3.41v8.23c0,2.1-.94,3.82-3.54,3.82-2.23,0-3-1.38-3-3.72V295h-3.41v9.17c0,3.91,2.22,5.79,5.41,5.79m-10.11-3.25c-1.35,0-2.13-.31-2.13-2.85v-6h3.35V295h-3.35v-4.41h-3.41V295h-2.47v2.84h2.47v6.8c0,4.91,3.06,5.13,4.72,5.13a16.38,16.38,0,0,0,2.54-.19v-3a13.68,13.68,0,0,1-1.72.12m-26.38.22c-2.66,0-4.26-2-4.26-4.63s1.6-4.63,4.26-4.63c2.91,0,4.32,2.13,4.32,4.63s-1.41,4.63-4.32,4.63m-.5,3a5.6,5.6,0,0,0,4.66-2.34v2h3.41V295h-3.41v2a5.24,5.24,0,0,0-4.57-2.35c-4.54,0-7.26,3.38-7.26,7.67s2.47,7.67,7.17,7.67m-23.1,0c3.72,0,5.76-2,5.76-4.75a4.22,4.22,0,0,0-3.38-3.91l-3.48-1a1.57,1.57,0,0,1-1.25-1.56c0-.91.91-1.5,2.1-1.5,1.6,0,2.54.72,2.54,1.94h3.35c0-2.6-1.94-4.54-5.76-4.54-3.38,0-5.6,1.91-5.6,4.29a3.93,3.93,0,0,0,3.16,4l3.76,1a1.43,1.43,0,0,1,1.09,1.53c0,1-.81,1.72-2.1,1.72-1.75,0-3-.88-3-2.13h-3.41c0,2.66,2.44,4.85,6.2,4.85m-17.06-3c-2.66,0-4.26-2-4.26-4.63s1.6-4.63,4.26-4.63c2.91,0,4.32,2.13,4.32,4.63s-1.41,4.63-4.32,4.63m-.5,3a5.59,5.59,0,0,0,4.66-2.34v2h3.41V295h-3.41v2a5.24,5.24,0,0,0-4.57-2.35c-4.54,0-7.26,3.38-7.26,7.67s2.47,7.67,7.17,7.67m-3.63-16.09,8.83-3.44-1.09-2.54-8.83,3.35ZM155,309.54h3.41V301.8c0-3.48,1.41-4.32,3.13-4.32s2.66,1,2.66,3.44v8.61h3.41V301.8c0-3.48,1.34-4.32,3.07-4.32s2.73,1.06,2.73,3.47v8.58h3.41V300.3c0-2.73-.87-5.73-5.26-5.73a4.9,4.9,0,0,0-4.48,2.59c-.63-1.43-1.94-2.59-4.6-2.59A4.45,4.45,0,0,0,158.4,297v-2H155Zm-22-8.76c0-2.07,1.47-3.51,3.88-3.51s3.66,1.25,3.7,3.51Zm10.92.72a6.6,6.6,0,0,0-7-6.92c-4.45,0-7.32,3-7.32,7.67s2.85,7.67,7.45,7.67c3.51,0,6.26-1.9,6.7-4.63h-3.44c-.57,1.13-1.57,1.66-3.26,1.66-2.47,0-4-1.25-4.07-3.57h10.83c.06-.87.09-1.22.09-1.88m-25.16,5.38c-2.66,0-4.26-2-4.26-4.63s1.59-4.63,4.26-4.63c2.91,0,4.32,2.13,4.32,4.63s-1.41,4.63-4.32,4.63m4.16-19.25v9.29a5.24,5.24,0,0,0-4.57-2.35c-4.54,0-7.26,3.38-7.26,7.67s2.47,7.67,7.17,7.67a5.6,5.6,0,0,0,4.66-2.34v2h3.41V287.63Zm-18.53,21.91h3.41V295h-3.41Zm1.72-16.69a2.53,2.53,0,1,0-2.53-2.53,2.46,2.46,0,0,0,2.53,2.53m-12,6.89H89.85v-8.89h4.25a4.46,4.46,0,0,1,0,8.89m.22-12.11H86.26v21.91h3.6V303h4.48a7.67,7.67,0,0,0,0-15.33"/><path class="cls-3" d="M112.08,200.32l5.52-5.15a3.11,3.11,0,0,1,4.24,0c20.24,18.82,42,28.23,70.67,28.23,29.06,0,50.32-9.26,71-28.26a3.11,3.11,0,0,1,4.22,0l5.56,5.19a3.85,3.85,0,0,1,.24,5.39q-33.18,36.76-81,36.76-46.69,0-80.64-36.76a3.85,3.85,0,0,1,.21-5.42"/></svg>