<svg xmlns="http://www.w3.org/2000/svg" viewBox="0 0 126 126"><defs><style>.cls-1{fill:#333f48;}.cls-2{fill:#fff;}.cls-3{fill:#00b388;}.cls-4{fill:#ff6900;}.cls-5{fill:none;stroke:#ff6900;stroke-miterlimit:10;stroke-width:0.06px;}</style></defs><title>vivaz_actividad_negativo</title><g id="Capa_2" data-name="Capa 2"><rect class="cls-1" width="126" height="126"/></g><g id="Capa_1" data-name="Capa 1"><path class="cls-2" d="M98.13,122.13a3.34,3.34,0,0,1,0-6.66,3.33,3.33,0,0,1,0,6.66m3.06-12.82v5.5h0v1a3.56,3.56,0,0,0-3.28-1.88,4.57,4.57,0,0,0-4.65,4.91c0,2.76,1.64,4.9,4.61,4.9a3.72,3.72,0,0,0,3.32-1.88v1.63h1.74V109.31Zm-15,12.82a3.33,3.33,0,1,1,3.15-3.32,3.06,3.06,0,0,1-3.15,3.32m-.24,1.57a3.72,3.72,0,0,0,3.32-1.88v1.63H91v-9.32H89.25v1.64A3.56,3.56,0,0,0,86,113.9a4.57,4.57,0,0,0-4.65,4.91c0,2.76,1.64,4.9,4.61,4.9m-11.72-1.57a3.34,3.34,0,0,1,0-6.66,3.33,3.33,0,0,1,0,6.66m3.06-12.82v5.5h0v1A3.56,3.56,0,0,0,74,113.9a4.57,4.57,0,0,0-4.65,4.91c0,2.76,1.64,4.9,4.61,4.9a3.72,3.72,0,0,0,3.32-1.88v1.63H79V109.31Zm-12,14.15h1.75v-9.32H65.32Zm.89-10.92a1.43,1.43,0,1,0-1.44-1.42,1.39,1.39,0,0,0,1.44,1.42m-8,10.92h1.44l4.11-9.32H61.86l-3,7-2.93-7H54.09Zm-7.44,0h1.76v-9.32H50.76Zm.89-10.92a1.43,1.43,0,1,0-1.44-1.42,1.38,1.38,0,0,0,1.44,1.42M47.46,122c-.89,0-1.5-.22-1.5-2v-4.37h2.35v-1.48H46v-3H44.2v3H42.52v1.48H44.2v4.75c0,3,1.75,3.21,2.87,3.21a7.7,7.7,0,0,0,1.56-.14v-1.55a6.51,6.51,0,0,1-1.17.1M37,123.7c2.53,0,4.12-1.35,4.35-3.4H39.59A2.32,2.32,0,0,1,37,122.13c-1.8,0-2.9-1.25-2.9-3.32s1.09-3.32,2.9-3.32a2.31,2.31,0,0,1,2.59,1.88h1.76c-.22-2.08-1.82-3.45-4.35-3.45-2.87,0-4.63,2-4.63,4.89s1.75,4.9,4.63,4.9m-13.62-4.08,2.41-7.77,2.43,7.77Zm6,3.84h2l-4.79-14.15H25l-4.79,14.15h2l.67-2.16h5.89Z"/><path class="cls-2" d="M76.75,103.23H84.9v-1.47H79.69l5.48-7.85h-8v1.5h5.08Zm-6.59-1.33a3.33,3.33,0,1,1,3.16-3.32,3.07,3.07,0,0,1-3.16,3.32m-.24,1.57a3.73,3.73,0,0,0,3.32-1.88v1.63H75V93.91H73.23v1.64A3.57,3.57,0,0,0,70,93.67c-2.9,0-4.65,2.16-4.65,4.91s1.64,4.9,4.61,4.9m-10.78-.24h1.44l4.11-9.32H62.79l-3,7-2.93-7H55Zm-7.44,0h1.76V93.91H51.68Zm.89-10.92a1.43,1.43,0,1,0-1.44-1.42,1.38,1.38,0,0,0,1.44,1.42m-8.84,10.92h1.78l4.79-14.16h-2l-3.68,11.28-3.7-11.28h-2Z"/><path class="cls-3" d="M35.67,1.44s-12.91,0-12.91,12.91V67.3s0,12.91,12.91,12.91H88.62s12.91,0,12.91-12.91V14.36s0-12.91-12.91-12.91Z"/><path class="cls-4" d="M41.19,54.2l1.46-1.36a.82.82,0,0,1,1.12,0,25.73,25.73,0,0,0,18.65,7.45c7.67,0,13.28-2.44,18.74-7.45a.83.83,0,0,1,1.12,0l1.47,1.37a1,1,0,0,1,.06,1.42,27.72,27.72,0,0,1-21.39,9.7q-12.32,0-21.28-9.7a1,1,0,0,1,.06-1.43"/><path class="cls-5" d="M41.19,54.2l1.46-1.36a.82.82,0,0,1,1.12,0,25.73,25.73,0,0,0,18.65,7.45c7.67,0,13.28-2.44,18.74-7.45a.83.83,0,0,1,1.12,0l1.47,1.37a1,1,0,0,1,.06,1.42,27.72,27.72,0,0,1-21.39,9.7q-12.32,0-21.28-9.7a1,1,0,0,1,.06-1.43"/><path class="cls-2" d="M61.39,25.67h2.14a1.68,1.68,0,0,1,1.67,1.68V47.08a1.68,1.68,0,0,1-1.67,1.68H61.39a1.68,1.68,0,0,1-1.68-1.68V27.35a1.68,1.68,0,0,1,1.68-1.68"/><path class="cls-2" d="M49.38,20.83,44,32.26,38.66,20.84a1.67,1.67,0,0,0-1.52-.95H33.85a.85.85,0,0,0-.81,1.2l6.31,13.57A5,5,0,0,0,44,37.5h0a5.05,5.05,0,0,0,4.6-2.84L55,21.09a.85.85,0,0,0-.81-1.2H50.9a1.68,1.68,0,0,0-1.52.94"/><path class="cls-2" d="M85.62,20.83,80.21,32.26,74.9,20.84a1.67,1.67,0,0,0-1.52-.95H70.08a.85.85,0,0,0-.81,1.2l6.32,13.57A5,5,0,0,0,80.2,37.5h0a5,5,0,0,0,4.6-2.84l6.43-13.58a.85.85,0,0,0-.8-1.2h-3.3a1.67,1.67,0,0,0-1.52.94"/></g></svg>