<?xml version="1.0" encoding="utf-8"?>
<!-- Generator: Adobe Illustrator 18.1.1, SVG Export Plug-In . SVG Version: 6.00 Build 0)  -->
<svg version="1.1" id="Capa_1" xmlns="http://www.w3.org/2000/svg" xmlns:xlink="http://www.w3.org/1999/xlink" x="0px" y="0px"
	 viewBox="0 0 708.7 708.7" enable-background="new 0 0 708.7 708.7" xml:space="preserve">
<path id="F831A04C-8F53-4B5A-8FEC-B6B2D5549795_4_" fill="#F6BF04" d="M354.3,651.3c164,0,297-133,297-297s-133-297-297-297
	s-297,133-297,297S190.3,651.3,354.3,651.3z"/>
<g>
	<path id="Triangle_1_" fill="#FFFFFF" d="M328.3,381.4l52-27l-52-27.2V381.4z"/>
	<path fill="none" stroke="#FFFFFF" stroke-width="21.1549" stroke-miterlimit="10" d="M446.1,219H262.5
		c-28.1,0-50.8,22.7-50.8,50.8v169c0,28.1,22.7,50.8,50.8,50.8h183.6c28.1,0,50.8-22.7,50.8-50.8v-169
		C496.9,241.8,474.2,219,446.1,219z M450.6,361.6c0,15.6-1.9,31.2-1.9,31.2s-1.9,13.3-7.7,19.1c-7.3,7.7-15.5,7.7-19.3,8.2
		c-27,1.9-67.4,2-67.4,2s-50.1-0.5-65.5-1.9c-4.3-0.8-13.9-0.6-21.2-8.2c-5.8-5.8-7.7-19.1-7.7-19.1s-1.9-15.6-1.9-31.2V347
		c0-15.6,1.9-31.2,1.9-31.2s1.9-13.3,7.7-19.1c7.3-7.7,15.5-7.7,19.3-8.2c27-1.9,67.4-1.9,67.4-1.9h0.1c0,0,40.4,0,67.4,1.9
		c3.8,0.4,12,0.5,19.3,8.2c5.8,5.8,7.7,19.1,7.7,19.1s1.9,15.6,1.9,31.2V361.6z"/>
</g>
</svg>
